<svg xmlns="http://www.w3.org/2000/svg" width="931" height="365" viewBox="0 0 931 365"><g><g><path fill="#f03522" d="M0 1s9.172 40.393 15.021 56c38.39 102.418 130.808 308 441.796 308 310.989 0 403.254-164 442.796-256C910.529 83.602 922.633 45.24 931 1z"/></g><g><path fill="#b41f10" d="M456.817 365C145.83 365 53.41 159.418 15.021 57 9.171 41.393 0 1 0 1h118s9.827 282.505 338.817 364z"/></g><g><path fill="#fd7472" d="M807.714 1.012s-9.265 59.433-29.704 103.091c-20.439 43.659-59.197 81.286-25.004 105.512 34.194 24.227 73.607-39.189 95.014-76.472 9.459-16.473 29.292-68.42 41.761-132.238z"/></g></g></svg>