<svg xmlns="http://www.w3.org/2000/svg" width="949" height="473" viewBox="0 0 949 473"><g><g><path fill="#f03522" d="M4 472C-9.467 360.077 17.787 205.921 150.962 128c168.318-98.484 332.846 3 332.846 3s147.68-104.088 334.845 8C946.12 215.335 959.175 359.568 942 473z"/></g><g><path fill="#fff" d="M475 465.995l-28.994-36.99h57.988z"/></g><g><path fill="#b41f10" d="M483.808 131S319.28 29.516 150.962 128C17.787 205.921-9.468 360.077 4 472h119s15.432-401.667 360.808-341z"/></g><g><path fill="#fd7472" d="M819 473c8.863-52.994 12.649-110.358 7.016-153.713C814.969 234.253 740 139 740 139s83.566 23.216 133.023 103.815C912.833 307.694 912.347 396.605 900 473z"/></g><g><path fill="#f84f48" d="M324.853 187.637c42.623 14.716 76.678 66.38 69.839 98.761-6.84 32.383-38.723 92.705-101.678 88.474-62.954-4.23-38.458-61.991-46.217-108.02-7.758-46.029 12.325-61.726 12.325-61.726s23.108-32.205 65.73-17.489zm437.52 114.193c-75.691-29.261-55.46-92.589-55.46-92.589zm27.73 33.95c18.419-5.948 39.715 40.33 13.352 48.35z"/></g><g><path fill="#fd9e8c" d="M801.754 183s-8.658 45.284 32.694 49.72"/></g><g><path fill="#3c9323" d="M269.965 85.873s127.359 23.677 149.01 48.928c0 0-.436 23.912 14.872 41.77 12.587 14.683 28.668 31.403 41.132 47.099 0 0 10.38-13.356 25.001-30.954 12.778-15.38 29.23-27.984 30.002-58.913 0 0 95.776-44.753 151.01-43.936 0 0-56.223-46.568-193.013 1.997 0 0-14.897-62.635-62.004-86.871L383.972 0s75.775 47.757 79.006 96.857c0 0-74.304-52.13-193.013-10.984z"/></g><g><path fill="#266015" d="M529.982 133.803c-.771 30.93-17.224 43.533-30.002 58.913-14.62 17.598-25.001 30.954-25.001 30.954S490.227 164.826 484 135c0 0 11.29-5.477 22.887-3.615 11.87 1.906 23.09 2.398 23.095 2.418z"/></g><g><path fill="#266015" d="M474 122s-84.243-55.898-204.035-36.127c0 0 127.359 23.677 149.01 48.928 0 0 8.944-7.373 25.646-11.8 16.703-4.427 29.366-1.024 29.379-1.001z"/></g></g></svg>